<svg width="936" height="166" viewBox="0 0 936 166" fill="none" xmlns="http://www.w3.org/2000/svg">
<path d="M149.608 111.985C149.259 110.671 148.695 109.424 147.938 108.294C148.101 107.7 148.224 107.095 148.307 106.484C148.844 102.609 147.501 99.0618 144.969 96.317C143.598 94.8178 142.128 93.8276 140.571 93.22C141.593 88.8476 142.11 84.3728 142.112 79.883C142.112 77.832 141.996 75.8231 141.802 73.8441C141.7 72.8559 141.578 71.8702 141.434 70.8872C140.988 67.9867 140.327 65.1232 139.456 62.3213C138.884 60.4802 138.224 58.668 137.475 56.8913C136.354 54.2601 135.045 51.7129 133.558 49.2696C132.583 47.644 131.521 46.072 130.376 44.5606C129.815 43.7974 129.231 43.0522 128.623 42.3261C126.821 40.137 124.864 38.0812 122.765 36.175C122.068 35.5342 121.352 34.9153 120.616 34.3192C119.892 33.7151 119.151 33.1304 118.396 32.5658C116.875 31.434 115.304 30.3723 113.687 29.3839C104.751 23.9565 94.2711 20.844 83.0707 20.844C50.4595 20.844 24.0291 47.2756 24.0291 79.8849C24.0278 84.4318 24.5544 88.963 25.5984 93.388C24.1977 93.9962 22.8555 94.9442 21.6105 96.3157C19.0796 99.0592 17.7354 102.594 18.273 106.469C18.3547 107.084 18.4772 107.694 18.6406 108.293C17.8846 109.423 17.3209 110.671 16.9722 111.985C16.1941 114.943 16.4502 117.61 17.4391 119.947C16.364 123.001 16.6324 126.253 18.0324 129.081C19.0504 131.146 20.5075 132.744 22.3037 134.172C24.439 135.87 27.1118 137.312 30.3358 138.696C34.1824 140.336 38.8777 141.877 41.013 142.443C46.5286 143.871 51.8173 144.776 57.1773 144.82C64.8139 144.891 71.3904 143.095 76.0987 138.5C78.4117 138.783 80.7402 138.925 83.0707 138.924C85.5328 138.919 87.9923 138.764 90.4356 138.46C95.1329 143.085 101.735 144.897 109.399 144.824C114.759 144.781 120.047 143.876 125.549 142.446C127.698 141.881 132.391 140.339 136.24 138.699C139.464 137.313 142.137 135.871 144.286 134.176C146.069 132.747 147.525 131.15 148.543 129.085C149.958 126.257 150.212 123.004 149.152 119.95C150.131 117.613 150.386 114.94 149.608 111.985ZM144.135 119.749C145.219 121.805 145.288 124.128 144.332 126.292C142.883 129.571 139.281 132.155 132.286 134.928C127.937 136.653 123.954 137.756 123.919 137.766C118.166 139.258 112.963 140.016 108.459 140.016C101.001 140.016 95.4506 137.958 91.9309 133.893C85.9789 134.907 79.9018 134.942 73.9387 133.996C70.4145 137.993 64.8963 140.016 57.5008 140.016C52.9962 140.016 47.7937 139.258 42.0401 137.766C42.0051 137.756 38.0237 136.653 33.6727 134.928C26.6787 132.155 23.0759 129.573 21.6267 126.292C20.6709 124.128 20.7403 121.805 21.8238 119.749C21.9237 119.558 22.0313 119.372 22.1461 119.191C21.4967 118.216 21.0612 117.114 20.868 115.958C20.6749 114.803 20.7286 113.619 21.0256 112.486C21.4561 110.85 22.3452 109.489 23.5525 108.512C22.9709 107.556 22.5893 106.493 22.4307 105.385C22.0832 102.977 22.8827 100.573 24.6808 98.6118C26.0815 97.086 28.0611 96.2463 30.2528 96.2463H30.3112C28.6587 90.9492 27.8208 85.4317 27.8264 79.883C27.8264 49.6197 52.3607 25.0835 82.6284 25.0835C112.896 25.0835 137.43 49.6171 137.43 79.883C137.434 85.4466 136.591 90.9784 134.928 96.2878C135.192 96.2619 135.451 96.2489 135.706 96.2482C137.898 96.2482 139.878 97.088 141.278 98.6137C143.076 100.573 143.876 102.979 143.528 105.387C143.37 106.495 142.988 107.558 142.407 108.514C143.614 109.491 144.504 110.852 144.934 112.488C145.231 113.621 145.284 114.805 145.091 115.961C144.899 117.116 144.463 118.218 143.813 119.193C143.928 119.372 144.037 119.558 144.135 119.749Z" fill="white"/>
<path d="M143.813 119.193C144.463 118.218 144.899 117.116 145.092 115.961C145.284 114.805 145.231 113.621 144.934 112.488C144.503 110.852 143.613 109.491 142.407 108.514C142.988 107.558 143.37 106.495 143.528 105.387C143.876 102.979 143.076 100.575 141.278 98.6137C139.878 97.0879 137.898 96.2482 135.706 96.2482C135.451 96.2482 135.192 96.2618 134.928 96.2878C136.589 90.9784 137.431 85.4472 137.425 79.8843C137.425 49.6204 112.891 25.0849 82.6265 25.0849C52.3613 25.0849 27.8244 49.6179 27.8244 79.8843C27.8189 85.4329 28.6568 90.9505 30.3093 96.2476H30.2508C28.0591 96.2476 26.0795 97.0866 24.6795 98.6124C22.8814 100.571 22.0812 102.978 22.4294 105.386C22.5881 106.494 22.9697 107.558 23.5512 108.513C22.3438 109.49 21.4542 110.85 21.0236 112.486C20.7268 113.621 20.6733 114.804 20.8666 115.96C21.06 117.116 21.4958 118.218 22.1454 119.193C22.0299 119.373 21.9236 119.56 21.8231 119.751C20.7402 121.807 20.6702 124.13 21.6267 126.294C23.0766 129.573 26.6779 132.157 33.6726 134.93C38.0217 136.655 42.0051 137.758 42.0401 137.768C47.7931 139.26 52.9961 140.018 57.5002 140.018C64.8963 140.018 70.4145 137.995 73.9387 133.998C79.9018 134.944 85.9789 134.909 91.9309 133.895C95.4506 137.96 101.001 140.018 108.459 140.018C112.963 140.018 118.166 139.26 123.918 137.768C123.954 137.758 127.935 136.655 132.286 134.93C139.281 132.157 142.883 129.573 144.332 126.294C145.288 124.13 145.219 121.807 144.135 119.751C144.037 119.558 143.928 119.371 143.813 119.193ZM71.417 127.74C71.1135 128.271 70.7886 128.789 70.443 129.293C69.5319 130.626 68.3336 131.646 66.9427 132.403C64.2841 133.853 60.9188 134.359 57.5002 134.359C52.0994 134.359 46.563 133.096 43.4602 132.291C43.3072 132.251 24.439 126.922 26.8278 122.385C27.2298 121.622 27.8912 121.317 28.7244 121.317C32.0879 121.317 38.2123 126.326 40.8444 126.326C41.4325 126.326 41.8475 126.076 42.0167 125.465C43.1385 121.442 24.9674 119.751 26.4977 113.925C26.7674 112.894 27.5002 112.475 28.5299 112.475C32.9769 112.475 42.9577 120.296 45.045 120.296C45.2052 120.296 45.3199 120.248 45.3821 120.15C45.3912 120.135 45.4003 120.12 45.4088 120.105C46.3886 118.487 45.8263 117.311 39.1143 113.2L38.4698 112.807C31.0834 108.337 25.8992 105.647 28.8476 102.437C29.1867 102.067 29.6679 101.903 30.2521 101.903C30.9447 101.903 31.7831 102.134 32.7065 102.523C36.6075 104.168 42.0142 108.655 44.2727 110.611C44.628 110.92 44.981 111.232 45.3315 111.546C45.3315 111.546 48.1912 114.519 49.92 114.519C50.3181 114.519 50.6559 114.362 50.8848 113.975C52.111 111.907 39.4963 102.348 38.7849 98.4036C38.3025 95.7314 39.1234 94.3775 40.6407 94.3775C41.3625 94.3775 42.243 94.6848 43.215 95.3015C46.2303 97.215 52.052 107.219 54.1834 111.111C54.8979 112.415 56.1177 112.966 57.2168 112.966C59.3975 112.966 61.1022 110.799 57.4165 108.044C51.8769 103.899 53.821 97.1243 56.4646 96.7073C56.5775 96.6892 56.6915 96.6801 56.805 96.6801C59.2094 96.6801 60.2696 100.823 60.2696 100.823C60.2696 100.823 63.3782 108.629 68.7182 113.965C73.5633 118.808 74.2403 122.782 71.417 127.74ZM88.6842 128.655L88.4073 128.688L87.9352 128.741C87.6869 128.767 87.4379 128.792 87.1883 128.815L86.9451 128.837L86.7227 128.856L86.4075 128.881L86.0593 128.906L85.7118 128.929L85.6346 128.934C85.5438 128.939 85.453 128.945 85.361 128.95L85.2449 128.956C85.1372 128.962 85.0296 128.967 84.9207 128.972L84.5439 128.988L84.2022 128.999L83.9739 129.006H83.8579C83.7865 129.006 83.7159 129.01 83.6445 129.011H83.5317C83.4604 129.011 83.3897 129.011 83.3184 129.014L83.0279 129.018H82.6226C82.3042 129.018 81.9865 129.014 81.67 129.008L81.4133 129.002C81.34 129.002 81.2667 128.999 81.1947 128.996L80.9224 128.988L80.5846 128.975L80.2798 128.962L80.2013 128.959L79.9115 128.944C79.8304 128.939 79.7507 128.935 79.6703 128.929L79.4829 128.918C79.2475 128.904 79.0121 128.887 78.7767 128.869L78.5303 128.849C78.4266 128.841 78.3228 128.832 78.2197 128.822C78.0985 128.812 77.9772 128.8 77.8559 128.789C77.653 128.77 77.45 128.749 77.2471 128.727H77.2373C80.2007 122.116 78.7022 115.942 72.7138 109.959C68.7862 106.036 66.1737 100.245 65.6316 98.9729C64.5344 95.2088 61.6307 91.0244 56.8083 91.0244C56.4004 91.0244 55.9932 91.0568 55.5905 91.1204C53.4779 91.453 51.6312 92.6688 50.3136 94.4987C48.8896 92.7279 47.5058 91.3201 46.2543 90.5251C44.3674 89.3287 42.4843 88.7218 40.6498 88.7218C38.3602 88.7218 36.3137 89.662 34.8872 91.3674L34.8508 91.4109C34.8236 91.2987 34.7977 91.1865 34.7711 91.0737L34.7678 91.0588C34.4963 89.8981 34.2684 88.7276 34.0844 87.5494C34.0844 87.5417 34.0844 87.5339 34.0805 87.5261C34.0662 87.4372 34.0533 87.3478 34.0397 87.2589C33.9998 86.9957 33.9624 86.7318 33.9275 86.4678C33.9119 86.3479 33.8951 86.2279 33.8801 86.108L33.836 85.7481C33.8218 85.6281 33.8101 85.5192 33.7971 85.405L33.7933 85.3765C33.7415 84.9096 33.6961 84.4428 33.6571 83.9746L33.6428 83.795L33.6201 83.4889C33.6136 83.4053 33.6071 83.321 33.6026 83.2367C33.6026 83.2166 33.5994 83.1971 33.5987 83.1783C33.5822 82.9436 33.5682 82.7082 33.5566 82.4728C33.5501 82.3503 33.5436 82.2284 33.5384 82.1052L33.5254 81.7835L33.5222 81.6863L33.5118 81.3899L33.5053 81.1377C33.5053 81.0372 33.5002 80.9367 33.4989 80.8362C33.4969 80.7357 33.4943 80.6254 33.4937 80.5191C33.4924 80.4127 33.4937 80.3077 33.4904 80.202C33.4878 80.0956 33.4904 79.9899 33.4904 79.8843C33.4904 52.7453 55.4926 30.7431 82.6343 30.7431C109.775 30.7431 131.777 52.7446 131.777 79.8843V80.5191C131.777 80.6248 131.774 80.7311 131.772 80.8362C131.772 80.9237 131.768 81.0099 131.765 81.0988C131.765 81.1766 131.762 81.255 131.759 81.3303C131.759 81.4295 131.753 81.5287 131.75 81.6279V81.6357L131.737 81.98C131.732 82.0805 131.728 82.1817 131.723 82.2822L131.72 82.3535L131.702 82.6751C131.664 83.3644 131.611 84.0524 131.546 84.7397V84.7482C131.535 84.861 131.524 84.9738 131.512 85.0867L131.482 85.3532L131.425 85.8745L131.392 86.1384L131.351 86.449C131.336 86.5619 131.321 86.6753 131.304 86.7875C131.287 86.914 131.268 87.0398 131.25 87.1656L131.205 87.4632L131.152 87.8004C131.134 87.9126 131.114 88.0241 131.093 88.1356C131.072 88.2478 131.055 88.3593 131.036 88.4709C130.997 88.6939 130.956 88.917 130.913 89.1394C130.848 89.472 130.781 89.804 130.712 90.136L130.641 90.4648C130.617 90.5744 130.592 90.6846 130.567 90.7942C129.184 89.45 127.352 88.7179 125.333 88.7179C123.499 88.7179 121.614 89.3242 119.728 90.5206C118.477 91.3156 117.094 92.724 115.669 94.4942C114.349 92.6643 112.503 91.4485 110.391 91.1158C109.989 91.0523 109.581 91.0199 109.174 91.0199C104.35 91.0199 101.448 95.2042 100.35 98.9684C99.8056 100.24 97.1923 106.032 93.2615 109.96C87.2771 115.924 85.7675 122.071 88.6842 128.655ZM139.419 115.421L139.399 115.478C139.35 115.609 139.293 115.736 139.229 115.859C139.18 115.95 139.127 116.038 139.07 116.123C138.962 116.285 138.843 116.439 138.714 116.585C138.685 116.618 138.656 116.652 138.622 116.685C138.576 116.735 138.528 116.784 138.48 116.832C137.607 117.697 136.276 118.456 134.772 119.152C134.601 119.229 134.428 119.306 134.254 119.384L134.08 119.461C133.964 119.512 133.848 119.563 133.726 119.613C133.61 119.663 133.489 119.714 133.369 119.763L133.007 119.912C132.161 120.261 131.294 120.593 130.448 120.92L130.086 121.061L129.729 121.201C129.491 121.293 129.256 121.386 129.025 121.479L128.681 121.618L128.343 121.756L128.177 121.826C128.066 121.872 127.957 121.918 127.849 121.964C125.361 123.032 123.571 124.118 123.947 125.466C123.957 125.504 123.969 125.54 123.982 125.576C124.016 125.676 124.062 125.77 124.119 125.858C124.153 125.911 124.192 125.961 124.235 126.006C124.678 126.466 125.482 126.393 126.497 126.028C126.64 125.976 126.782 125.921 126.923 125.864L127.011 125.828C127.243 125.729 127.489 125.619 127.74 125.5C127.802 125.47 127.866 125.442 127.93 125.408C129.171 124.802 130.577 123.984 131.973 123.241C132.531 122.939 133.097 122.653 133.67 122.382C134.992 121.76 136.234 121.319 137.233 121.319C137.702 121.319 138.115 121.415 138.46 121.635L138.518 121.673C138.734 121.826 138.916 122.022 139.052 122.249C139.078 122.292 139.104 122.338 139.129 122.385C139.623 123.322 139.21 124.292 138.243 125.244C137.315 126.157 135.872 127.053 134.231 127.882C134.109 127.943 133.987 128.005 133.863 128.065C128.981 130.463 122.586 132.269 122.498 132.292C120.794 132.733 118.357 133.313 115.611 133.747L115.205 133.81L115.139 133.82C114.831 133.867 114.523 133.91 114.214 133.95C113.901 133.992 113.585 134.031 113.266 134.066L113.208 134.073C112.054 134.206 110.895 134.294 109.734 134.336H109.717C109.297 134.351 108.877 134.359 108.457 134.359H107.973C107.332 134.35 106.693 134.321 106.054 134.272C106.039 134.272 106.023 134.272 106.008 134.268C105.779 134.251 105.551 134.229 105.322 134.204C105.086 134.179 104.85 134.15 104.614 134.118C104.459 134.098 104.305 134.074 104.151 134.049C103.994 134.024 103.837 133.998 103.681 133.97L103.467 133.93L103.451 133.927C103.226 133.884 103.002 133.837 102.779 133.785C102.65 133.756 102.521 133.727 102.393 133.692L102.316 133.673C102.252 133.657 102.191 133.64 102.128 133.624L102.093 133.614L101.894 133.556C101.821 133.536 101.748 133.514 101.676 133.493L101.65 133.485L101.462 133.428C101.39 133.406 101.319 133.382 101.248 133.359L101.075 133.301L100.947 133.256C100.824 133.213 100.701 133.168 100.58 133.122L100.464 133.076L100.369 133.039C100.185 132.965 100.002 132.888 99.8211 132.806L99.7011 132.748L99.6811 132.739C99.6383 132.719 99.5961 132.699 99.5533 132.681C99.4697 132.641 99.3867 132.6 99.3043 132.557L99.279 132.545L99.1597 132.482C98.9477 132.371 98.7402 132.253 98.5366 132.128L98.425 132.059C98.3693 132.025 98.3135 131.989 98.259 131.953L98.1138 131.857L97.9575 131.75L97.8641 131.683C97.7656 131.613 97.6689 131.54 97.5743 131.466L97.4232 131.349C97.3629 131.301 97.3032 131.252 97.2442 131.202C97.1943 131.161 97.1457 131.118 97.097 131.075L97.0931 131.072C97.0406 131.026 96.9894 130.98 96.9382 130.932C96.8876 130.886 96.837 130.84 96.7877 130.792L96.7819 130.787C96.73 130.737 96.6794 130.687 96.6295 130.636C96.5796 130.586 96.5283 130.535 96.4797 130.483C96.4311 130.432 96.3811 130.379 96.3332 130.326C96.2852 130.272 96.2411 130.224 96.1957 130.171L96.1808 130.154C96.1367 130.103 96.0933 130.052 96.0505 129.999C95.9577 129.889 95.8676 129.775 95.7807 129.659C95.6932 129.542 95.6076 129.423 95.5239 129.302L95.4442 129.182C95.3378 129.027 95.2341 128.87 95.1336 128.71C95.0583 128.596 94.9851 128.48 94.9137 128.363C94.8677 128.289 94.8236 128.216 94.7795 128.143L94.7614 128.113C94.7192 128.042 94.6777 127.972 94.6375 127.901C94.6142 127.863 94.5921 127.825 94.5714 127.785C94.55 127.745 94.5253 127.704 94.5026 127.663L94.4657 127.599L94.443 127.557C94.3995 127.48 94.3567 127.401 94.3152 127.322C94.2958 127.287 94.277 127.252 94.2569 127.218L94.1992 127.106L94.1408 126.995C93.9949 126.703 93.8568 126.408 93.7271 126.108L93.6811 125.999C93.6512 125.925 93.6234 125.853 93.5935 125.781C93.5793 125.746 93.565 125.711 93.5527 125.676C93.4833 125.497 93.4184 125.315 93.3588 125.132C93.3374 125.067 93.3166 125.003 93.2972 124.938C93.2505 124.79 93.2083 124.642 93.1707 124.492C93.1247 124.318 93.0838 124.142 93.0495 123.965C93.0423 123.929 93.0352 123.894 93.0294 123.859C92.9957 123.686 92.9684 123.512 92.947 123.337C92.9418 123.302 92.938 123.268 92.9341 123.234L92.923 123.129C92.9088 122.991 92.8977 122.853 92.8913 122.715C92.8913 122.68 92.888 122.645 92.8867 122.611C92.8835 122.542 92.8822 122.474 92.8815 122.405C92.8452 119.634 94.2471 116.97 97.2449 113.974C102.585 108.639 105.693 100.833 105.693 100.833C105.693 100.833 105.777 100.505 105.951 100.034C105.975 99.9683 106 99.9009 106.029 99.8302C106.13 99.5663 106.244 99.3069 106.37 99.054L106.396 99.0054C106.503 98.7901 106.621 98.58 106.748 98.3757C106.778 98.3284 106.807 98.2817 106.84 98.2344C106.935 98.0937 107.036 97.9562 107.141 97.8233C107.199 97.7513 107.262 97.68 107.325 97.6106C107.35 97.5833 107.375 97.5561 107.401 97.5302C107.711 97.2105 108.064 96.9498 108.464 96.8111L108.515 96.7942C108.548 96.7832 108.582 96.7728 108.617 96.7631C108.656 96.7527 108.696 96.7436 108.736 96.7352L108.755 96.7313C108.84 96.7144 108.925 96.7034 109.011 96.6976H109.019C109.063 96.6976 109.109 96.693 109.155 96.693C109.212 96.693 109.266 96.693 109.323 96.6989C109.381 96.7041 109.439 96.7106 109.497 96.7196C109.978 96.7961 110.436 97.0828 110.83 97.525C110.98 97.6936 111.115 97.8751 111.233 98.0671C111.311 98.1916 111.384 98.3232 111.453 98.462C111.481 98.5197 111.508 98.5729 111.534 98.6299C111.601 98.7765 111.662 98.9256 111.715 99.078C111.842 99.4346 111.937 99.8017 112 100.175C112.055 100.503 112.087 100.833 112.097 101.165C112.103 101.342 112.103 101.521 112.097 101.702C112.062 102.544 111.89 103.375 111.587 104.161C111.56 104.233 111.529 104.306 111.5 104.378C111.44 104.525 111.375 104.669 111.304 104.81C111.252 104.917 111.197 105.024 111.137 105.131C111.098 105.202 111.057 105.274 111.016 105.345C110.912 105.523 110.799 105.699 110.678 105.875L110.605 105.98C110.318 106.379 109.999 106.754 109.65 107.1C109.306 107.445 108.938 107.763 108.548 108.054C108.158 108.343 107.792 108.663 107.453 109.011C106.479 110.034 106.252 110.937 106.471 111.621C106.506 111.728 106.552 111.833 106.608 111.931C106.673 112.044 106.751 112.148 106.839 112.243L106.874 112.278L106.909 112.313C106.944 112.347 106.981 112.38 107.02 112.412L107.059 112.444C107.153 112.516 107.253 112.581 107.357 112.638C107.388 112.654 107.415 112.671 107.449 112.686C107.562 112.741 107.678 112.789 107.798 112.827C107.831 112.838 107.864 112.848 107.897 112.858L107.94 112.869L107.998 112.885L108.048 112.897L108.102 112.909L108.156 112.92L108.207 112.928C108.245 112.934 108.284 112.941 108.323 112.945L108.36 112.951L108.427 112.958L108.469 112.962L108.537 112.967H108.577L108.648 112.971H108.873L108.937 112.967L109.011 112.962L109.101 112.954L109.185 112.944C109.205 112.944 109.224 112.939 109.244 112.935C109.503 112.897 109.757 112.829 110 112.73L110.103 112.687C110.161 112.661 110.219 112.635 110.273 112.606C110.387 112.549 110.498 112.484 110.604 112.414C110.752 112.316 110.893 112.208 111.024 112.088C111.055 112.06 111.085 112.03 111.115 112.001C111.13 111.987 111.144 111.973 111.158 111.958C111.187 111.929 111.216 111.9 111.245 111.868C111.452 111.64 111.632 111.389 111.78 111.118C113.049 108.81 114.379 106.537 115.768 104.301L115.959 103.995L116.151 103.69C116.247 103.535 116.345 103.382 116.441 103.231L116.538 103.079C116.861 102.573 117.19 102.071 117.523 101.572L117.721 101.276C118.118 100.688 118.514 100.116 118.906 99.5728L119.101 99.3037C119.528 98.7155 119.972 98.1397 120.433 97.5782L120.616 97.359C120.646 97.3227 120.674 97.2864 120.707 97.2513C120.768 97.18 120.828 97.1106 120.887 97.0432C120.917 97.0088 120.945 96.9751 120.976 96.9414L121.15 96.7456L121.237 96.6502C121.325 96.5562 121.41 96.4661 121.494 96.3799C121.553 96.3215 121.607 96.2638 121.662 96.2093C121.991 95.8734 122.354 95.5719 122.745 95.3106L122.835 95.2522C122.922 95.1939 123.012 95.1394 123.105 95.0901C124.637 94.2199 125.906 94.1557 126.637 94.8865C127.079 95.3287 127.325 96.0621 127.311 97.0828C127.311 97.1275 127.311 97.1729 127.308 97.2196V97.2695C127.308 97.3162 127.304 97.3629 127.3 97.4102C127.3 97.4686 127.293 97.5263 127.288 97.5846C127.282 97.6424 127.279 97.6865 127.273 97.7383C127.273 97.7526 127.27 97.7675 127.268 97.7831C127.264 97.8278 127.258 97.8739 127.251 97.9199C127.251 97.9335 127.251 97.9478 127.246 97.962C127.239 98.0236 127.23 98.0846 127.22 98.1455C127.212 98.2039 127.203 98.2584 127.192 98.3154L127.175 98.4121C127.159 98.5041 127.137 98.5949 127.111 98.6844C127.06 98.8523 126.999 99.0164 126.927 99.1759C126.827 99.3951 126.716 99.6084 126.594 99.8159C126.526 99.9313 126.457 100.045 126.385 100.157C126.311 100.273 126.233 100.39 126.153 100.509C125.948 100.802 125.735 101.089 125.514 101.37L125.413 101.498C125.052 101.947 124.68 102.388 124.296 102.818L124.175 102.954C124.012 103.136 123.846 103.319 123.676 103.504L123.548 103.642C123.463 103.735 123.374 103.828 123.289 103.921C123.204 104.014 123.115 104.108 123.025 104.202L122.759 104.483L122.489 104.765L122.216 105.048C122.033 105.238 121.85 105.427 121.665 105.616C119.036 108.313 116.265 111.001 115.328 112.676C115.265 112.785 115.209 112.898 115.158 113.013C115.024 113.318 114.969 113.578 115.007 113.789C115.019 113.858 115.043 113.925 115.079 113.986C115.131 114.077 115.196 114.161 115.27 114.237C115.305 114.27 115.341 114.301 115.379 114.33C115.572 114.467 115.805 114.538 116.042 114.532H116.116L116.192 114.526L116.268 114.517L116.331 114.508C116.339 114.507 116.348 114.506 116.357 114.503L116.415 114.492L116.43 114.489L116.494 114.475L116.516 114.469C116.539 114.463 116.561 114.458 116.584 114.451C116.607 114.445 116.638 114.436 116.665 114.427C116.779 114.393 116.891 114.352 117 114.305C117.058 114.282 117.114 114.257 117.17 114.229C117.199 114.216 117.228 114.203 117.256 114.189L117.343 114.146C117.55 114.038 117.752 113.921 117.949 113.795L118.036 113.737C118.065 113.718 118.094 113.7 118.122 113.679L118.208 113.621L118.254 113.589L118.379 113.502C118.495 113.422 118.603 113.34 118.713 113.256L118.722 113.248L118.897 113.113C119.135 112.925 119.36 112.736 119.565 112.558L119.702 112.438L119.714 112.427L119.785 112.364C119.953 112.213 120.102 112.073 120.226 111.958L120.277 111.908C120.321 111.866 120.362 111.826 120.399 111.793L120.472 111.721L120.498 111.695L120.505 111.688L120.581 111.612L120.629 111.562L120.635 111.558L120.657 111.537L120.686 111.511L120.695 111.503L120.719 111.481L120.851 111.365L120.925 111.298C120.965 111.264 121.003 111.229 121.041 111.193L121.129 111.115C121.146 111.102 121.161 111.088 121.177 111.073L121.27 110.992L121.406 110.872L121.479 110.81C121.761 110.564 122.104 110.268 122.498 109.934L122.66 109.797L122.926 109.574L123.199 109.346C123.556 109.05 123.94 108.735 124.346 108.409L124.612 108.195C124.839 108.014 125.072 107.83 125.308 107.645C125.403 107.57 125.5 107.495 125.598 107.421C125.84 107.234 126.082 107.048 126.327 106.864C126.883 106.444 127.457 106.023 128.038 105.614L128.287 105.44C128.461 105.32 128.635 105.199 128.809 105.082L128.966 104.976C129.277 104.765 129.592 104.559 129.91 104.359L130.067 104.26L130.224 104.162C130.381 104.065 130.536 103.97 130.691 103.877L130.846 103.784L131.156 103.604L131.46 103.43L131.522 103.396L131.762 103.264C131.863 103.209 131.963 103.157 132.063 103.105L132.211 103.029L132.356 102.956C132.406 102.932 132.456 102.907 132.506 102.883C132.831 102.722 133.163 102.574 133.5 102.44C133.592 102.401 133.683 102.366 133.773 102.335L134.039 102.242C134.118 102.215 134.196 102.19 134.271 102.167L134.297 102.159C134.337 102.146 134.377 102.135 134.417 102.124L134.428 102.121C134.511 102.097 134.594 102.076 134.675 102.057H134.68C134.91 102.002 135.143 101.962 135.379 101.938C135.487 101.927 135.595 101.921 135.704 101.922H135.759C135.831 101.922 135.901 101.927 135.971 101.934C136.003 101.934 136.034 101.94 136.066 101.944H136.079C136.11 101.948 136.141 101.953 136.172 101.96C136.202 101.965 136.233 101.971 136.263 101.978H136.273C136.304 101.984 136.331 101.992 136.363 102.001C136.527 102.047 136.684 102.119 136.828 102.212C136.899 102.258 136.965 102.31 137.026 102.368L137.043 102.384C137.055 102.395 137.066 102.406 137.076 102.417L137.108 102.451C137.369 102.724 137.584 103.037 137.746 103.378L137.771 103.437C137.826 103.566 137.869 103.701 137.901 103.838C137.993 104.256 137.957 104.693 137.798 105.092C137.738 105.253 137.665 105.408 137.578 105.556C137.377 105.896 137.137 106.211 136.866 106.497L136.808 106.559C136.722 106.65 136.632 106.741 136.538 106.831C136.497 106.872 136.453 106.912 136.41 106.953L136.277 107.076L136.208 107.137C136.04 107.287 135.868 107.431 135.694 107.571C135.588 107.657 135.482 107.74 135.374 107.823C134.994 108.113 134.607 108.393 134.213 108.664C133.975 108.827 133.735 108.987 133.493 109.146C132.897 109.537 132.295 109.918 131.687 110.289C130.411 111.073 128.996 111.913 127.489 112.825L127.098 113.062C126.671 113.322 126.268 113.571 125.888 113.809L125.696 113.929L125.335 114.161C125.095 114.314 124.855 114.469 124.616 114.624L124.423 114.751C124.329 114.812 124.236 114.875 124.143 114.937L124.051 114.995L123.771 115.184L123.623 115.286L123.449 115.406L123.287 115.518C123.017 115.71 122.765 115.892 122.534 116.065L122.447 116.131C122.311 116.234 122.176 116.339 122.043 116.446C121.843 116.608 121.66 116.762 121.496 116.911L121.415 116.984C121.369 117.026 121.324 117.068 121.281 117.11C121.251 117.139 121.223 117.168 121.192 117.196L121.15 117.237C121.057 117.331 120.967 117.426 120.879 117.524L120.836 117.573C120.741 117.684 120.658 117.789 120.585 117.892L120.553 117.938C120.496 118.021 120.443 118.107 120.396 118.195C120.384 118.217 120.373 118.239 120.362 118.261L120.33 118.328L120.308 118.375L120.295 118.408L120.284 118.437L120.269 118.477C120.229 118.586 120.201 118.7 120.185 118.816L120.179 118.856L120.176 118.894V119.098C120.176 119.115 120.176 119.132 120.18 119.15L120.183 119.181C120.183 119.198 120.187 119.214 120.19 119.232C120.192 119.249 120.197 119.279 120.202 119.303V119.307C120.207 119.329 120.211 119.351 120.217 119.374C120.223 119.397 120.229 119.423 120.236 119.446C120.248 119.492 120.264 119.538 120.28 119.583C120.29 119.61 120.3 119.637 120.311 119.663C120.311 119.668 120.315 119.674 120.318 119.68L120.341 119.732L120.373 119.804C120.408 119.879 120.447 119.951 120.488 120.022L120.531 120.096L120.575 120.17C120.583 120.182 120.592 120.194 120.602 120.205L120.616 120.22L120.632 120.235L120.649 120.248C120.674 120.265 120.7 120.279 120.728 120.288C120.743 120.294 120.759 120.297 120.774 120.301C121.148 120.386 121.917 120.076 122.939 119.537C122.997 119.506 123.06 119.473 123.122 119.44L123.433 119.27L123.585 119.185C123.693 119.128 123.804 119.062 123.916 118.998L124.122 118.882C125.473 118.104 127.086 117.106 128.754 116.131C128.91 116.039 129.067 115.948 129.224 115.858L129.539 115.656C129.905 115.446 130.272 115.24 130.641 115.035C131.106 114.78 131.574 114.531 132.047 114.29L132.356 114.133C132.561 114.032 132.764 113.934 132.964 113.838C133.352 113.654 133.744 113.478 134.141 113.313L134.358 113.225L134.384 113.215C135.535 112.759 136.578 112.477 137.423 112.477C137.605 112.475 137.788 112.491 137.967 112.522H137.973C138.031 112.532 138.083 112.544 138.137 112.557H138.147C138.285 112.592 138.419 112.642 138.546 112.706C138.725 112.798 138.885 112.921 139.02 113.069C139.083 113.137 139.138 113.212 139.186 113.291C139.277 113.431 139.349 113.582 139.4 113.74C139.421 113.801 139.439 113.862 139.458 113.926C139.594 114.417 139.581 114.937 139.419 115.421Z" fill="#FF9D00"/>
<path fill-rule="evenodd" clip-rule="evenodd" d="M131.769 80.202V79.8836C131.769 52.7439 109.775 30.7431 82.6336 30.7431C55.4927 30.7431 33.4905 52.7452 33.4905 79.8836V79.99C33.4892 80.0606 33.4886 80.1313 33.4905 80.202C33.4937 80.3077 33.4948 80.4134 33.4937 80.5191L33.497 80.7525L33.4989 80.8362C33.4989 80.8751 33.5003 80.9133 33.5016 80.9522C33.5035 81.0138 33.5048 81.0761 33.5048 81.1377L33.5119 81.3899L33.5223 81.6863L33.5255 81.7835L33.5385 82.0902V82.1052C33.5437 82.2251 33.5502 82.3444 33.5561 82.4637L33.5566 82.4728C33.5631 82.5947 33.5697 82.7173 33.5775 82.8398C33.5839 82.9527 33.5904 83.0655 33.5988 83.1783L33.6001 83.1984C33.6058 83.295 33.6123 83.3923 33.6195 83.4889L33.6215 83.5149L33.6429 83.795L33.6449 83.8131C33.6488 83.8676 33.6526 83.9221 33.6578 83.9746C33.6966 84.4421 33.7418 84.9097 33.7934 85.3759L33.7966 85.4051L33.8361 85.7481L33.8803 86.108L33.9126 86.3524L33.9275 86.4672C33.9621 86.7318 33.9995 86.9957 34.0397 87.2589L34.0424 87.2765L34.0806 87.5255C34.2657 88.7114 34.495 89.8903 34.7679 91.0594L34.7712 91.0737L34.7919 91.1612L34.8509 91.4109L34.8872 91.3674C36.3138 89.6621 38.3603 88.7218 40.6499 88.7218C42.485 88.7218 44.3675 89.3288 46.2544 90.5251C47.5059 91.3201 48.8897 92.7279 50.3136 94.4987C51.6312 92.6689 53.478 91.4524 55.5906 91.1204C55.9934 91.0568 56.4006 91.0251 56.8084 91.0244C61.6302 91.0244 64.5344 95.2088 65.6316 98.973C66.1737 100.245 68.7862 106.036 72.7262 109.954C78.7151 115.937 80.2137 122.111 77.2497 128.722H77.26C77.4617 128.745 77.6647 128.765 77.8689 128.784C77.9902 128.796 78.1108 128.808 78.2327 128.818L78.2755 128.822L78.5433 128.845L78.7897 128.864C79.0244 128.882 79.2598 128.899 79.4958 128.914L79.6832 128.925L79.8317 128.934L79.9238 128.939L80.2137 128.954L80.2928 128.957L80.5969 128.971L80.9354 128.984L81.2071 128.992L81.2525 128.993C81.3102 128.996 81.3679 128.998 81.4256 128.998L81.4878 129C81.8704 129.009 82.2523 129.013 82.6349 129.012H83.0409L83.3307 129.009C83.402 129.006 83.4727 129.006 83.5447 129.006H83.6575L83.7554 129.003C83.7937 129.002 83.8319 129.001 83.8709 129.001H83.9869L84.2145 128.995L84.5569 128.983L84.9336 128.966C85.0426 128.963 85.1502 128.957 85.2579 128.952L85.3739 128.944L85.5464 128.935L85.6476 128.929L85.7241 128.924L86.0723 128.902L86.4199 128.876L86.7356 128.851L86.9574 128.832L87.2012 128.81C87.6084 128.774 88.0144 128.731 88.4203 128.682L88.6972 128.649C85.7798 122.066 87.2901 115.919 93.2537 109.96C97.1852 106.032 99.7978 100.24 100.342 98.9678C101.44 95.2042 104.343 91.0199 109.166 91.0199C109.574 91.0199 109.981 91.0523 110.384 91.1159C112.495 91.4479 114.342 92.6643 115.661 94.4942C117.086 92.724 118.469 91.3149 119.721 90.5199C121.607 89.3242 123.492 88.7173 125.325 88.7173C127.345 88.7173 129.177 89.45 130.56 90.7942C130.585 90.6846 130.61 90.575 130.634 90.4648L130.704 90.1367C130.73 90.0167 130.755 89.8968 130.779 89.7768C130.822 89.5648 130.864 89.3527 130.905 89.1388C130.948 88.917 130.989 88.6939 131.028 88.4709L131.048 88.3503C131.06 88.2789 131.072 88.2076 131.086 88.1356C131.108 88.0241 131.126 87.9126 131.144 87.7997L131.151 87.7569L131.197 87.4632L131.242 87.1656V87.163C131.276 86.9432 131.307 86.7233 131.336 86.5035L131.343 86.449L131.384 86.1391L131.417 85.8745L131.475 85.3532L131.498 85.1437L131.504 85.0867C131.516 84.9739 131.528 84.861 131.538 84.7482V84.7391C131.547 84.6496 131.556 84.5595 131.563 84.4694C131.609 83.9584 131.648 83.4448 131.68 82.9293C131.685 82.845 131.69 82.7601 131.695 82.6751V82.6712L131.712 82.3529L131.716 82.2815C131.726 82.0663 131.735 81.851 131.742 81.6357V81.6279L131.746 81.5436C131.749 81.4729 131.751 81.4016 131.751 81.3303L131.753 81.3017C131.755 81.235 131.758 81.1662 131.758 81.0981L131.76 81.0398C131.762 80.9717 131.764 80.9043 131.764 80.8362L131.765 80.7785C131.767 80.6922 131.769 80.6053 131.769 80.5191V80.202ZM70.445 129.293C74.3369 123.586 74.0606 119.302 68.7214 113.965C63.3809 108.628 60.2729 100.824 60.2729 100.824C60.2729 100.824 59.1129 96.2904 56.4673 96.7067C53.8217 97.123 51.8809 103.897 57.4205 108.044C62.9595 112.191 56.3182 115.002 54.1861 111.111C52.054 107.219 46.2329 97.2157 43.2151 95.3022C40.1973 93.3886 38.0749 94.4611 38.7863 98.4049C39.1397 100.363 42.426 103.704 45.4964 106.826C48.6115 109.993 51.5041 112.934 50.8855 113.975C49.658 116.041 45.3349 111.546 45.3349 111.546C45.3349 111.546 31.7981 99.2272 28.8516 102.438C26.1346 105.396 30.3242 107.912 36.7801 111.789C37.3287 112.118 37.8941 112.458 38.4732 112.808C45.8595 117.28 46.434 118.459 45.3854 120.151C44.9983 120.776 42.5258 119.292 39.4847 117.466C34.3004 114.353 27.4646 110.249 26.4991 113.923C25.6639 117.102 30.6931 119.05 35.2542 120.817C39.0541 122.289 42.5298 123.635 42.0182 125.462C41.4884 127.357 38.6165 125.777 35.4774 124.049C31.9531 122.11 28.0917 119.986 26.8279 122.383C24.4397 126.915 43.3047 132.251 43.4603 132.291C49.5556 133.872 65.035 137.222 70.445 129.293ZM95.5168 129.293C91.6249 123.586 91.9011 119.302 97.241 113.965C102.581 108.628 105.689 100.824 105.689 100.824C105.689 100.824 106.849 96.2904 109.495 96.7067C112.14 97.123 114.081 103.897 108.542 108.044C103.002 112.191 109.644 115.002 111.776 111.111C113.908 107.219 119.726 97.2157 122.743 95.3022C125.761 93.3886 127.885 94.4611 127.173 98.4049C126.82 100.363 123.533 103.704 120.463 106.826C117.348 109.993 114.455 112.934 115.073 113.975C116.301 116.041 120.627 111.544 120.627 111.544C120.627 111.544 134.163 99.2252 137.111 102.436C139.827 105.394 135.638 107.91 129.181 111.787C128.616 112.126 128.052 112.466 127.489 112.806C120.102 117.278 119.528 118.457 120.576 120.148C120.963 120.774 123.436 119.289 126.476 117.464C131.661 114.351 138.497 110.247 139.463 113.921C140.299 117.1 135.269 119.048 130.707 120.815C126.908 122.287 123.432 123.633 123.943 125.46C124.472 127.354 127.343 125.774 130.482 124.047C134.006 122.107 137.868 119.982 139.131 122.381C141.52 126.916 122.652 132.247 122.5 132.286C116.404 133.872 100.925 137.222 95.5168 129.293Z" fill="#FFD21E"/>
<path fill-rule="evenodd" clip-rule="evenodd" d="M98.593 66.5083C99.3594 66.7793 99.9294 67.6042 100.472 68.3894C101.204 69.4503 101.886 70.4378 102.933 69.8815C104.168 69.2246 105.18 68.2169 105.841 66.9849C106.503 65.7529 106.785 64.3527 106.652 62.9607C106.552 61.9198 106.222 60.9141 105.687 60.016C105.151 59.1179 104.423 58.3497 103.555 57.7668C102.687 57.184 101.7 56.8011 100.667 56.6455C99.6324 56.4899 98.5768 56.5657 97.5756 56.8673C96.5744 57.1688 95.653 57.6884 94.8768 58.3889C94.1006 59.0893 93.4891 59.9531 93.0871 60.9181C92.6851 61.8831 92.5016 62.9254 92.5502 63.9697C92.5995 65.0143 92.8789 66.0343 93.3698 66.9577C93.8548 67.87 94.9312 67.4395 96.0673 66.9849C96.9576 66.6289 97.8855 66.258 98.593 66.5083ZM65.2795 66.5083C64.513 66.7793 63.9431 67.6048 63.401 68.3894C62.6682 69.4509 61.9854 70.4378 60.9395 69.8815C59.3868 69.0592 58.1961 67.6878 57.5993 66.0356C57.0025 64.383 57.0425 62.5675 57.7115 60.9428C58.3804 59.3182 59.6304 58.0009 61.2177 57.2476C62.8051 56.4944 64.616 56.3593 66.2975 56.8686C67.6366 57.2718 68.8258 58.0629 69.7155 59.1417C70.6051 60.2207 71.1543 61.539 71.2951 62.9302C71.4351 64.3214 71.1595 65.723 70.5033 66.9577C70.0176 67.87 68.9412 67.4395 67.8052 66.9855C66.9142 66.6289 65.9876 66.258 65.2795 66.5083ZM93.4392 96.8234C98.7194 92.6637 100.659 85.8719 100.659 81.6882C100.659 78.3812 98.4341 79.4219 94.8722 81.1857L94.6712 81.2849C91.4018 82.904 87.0495 85.0601 82.2718 85.0601C77.4935 85.0601 73.1412 82.904 69.8724 81.2842C66.1951 79.4628 63.8886 78.3202 63.8886 81.6889C63.8886 86.0049 65.9519 93.0916 71.6154 97.2086C72.363 95.6919 73.4154 94.3457 74.7071 93.2538C75.9982 92.1618 77.5012 91.348 79.121 90.863C79.6865 90.6944 80.2688 91.6677 80.8647 92.6643C81.4399 93.6253 82.028 94.6083 82.6258 94.6083C83.2633 94.6083 83.889 93.6396 84.5005 92.6941C85.1392 91.7053 85.7623 90.7424 86.3647 90.9349C89.3962 91.9082 91.9322 94.0189 93.4392 96.8234Z" fill="#32343D"/>
<path d="M93.4379 96.8227C90.6879 98.9898 87.0326 100.443 82.2725 100.443C77.8002 100.443 74.3025 99.1603 71.6154 97.2079C72.363 95.6912 73.4154 94.3444 74.7071 93.2531C75.9982 92.1611 77.5013 91.3473 79.121 90.8623C80.2312 90.5309 81.4081 94.6077 82.6259 94.6077C83.9292 94.6077 85.1852 90.5575 86.3647 90.9343C89.3955 91.9082 91.9309 94.0189 93.4379 96.8227Z" fill="#FF323D"/>
<path fill-rule="evenodd" clip-rule="evenodd" d="M52.6531 72.3916C52.0249 72.8117 51.3026 73.0705 50.5504 73.1444C49.7981 73.219 49.0392 73.1061 48.341 72.8163C47.7829 72.5861 47.2758 72.2476 46.8488 71.8203C46.4218 71.3936 46.0834 70.8865 45.853 70.3282C45.5638 69.6299 45.4513 68.8712 45.5256 68.119C45.5999 67.3668 45.8587 66.6445 46.279 66.0161C46.784 65.26 47.5018 64.6708 48.3418 64.3229C49.1818 63.9749 50.1061 63.8839 50.9977 64.0614C51.8895 64.2389 52.7084 64.6769 53.3511 65.3197C53.9938 65.963 54.4313 66.7826 54.6082 67.6742C54.7854 68.5658 54.6942 69.4898 54.3464 70.3295C53.9985 71.1693 53.4088 71.8864 52.6531 72.3916ZM118.413 72.3916C117.785 72.8117 117.062 73.0705 116.31 73.1444C115.557 73.219 114.799 73.1061 114.1 72.8163C113.542 72.5854 113.035 72.2476 112.608 71.8203C112.182 71.3936 111.843 70.8865 111.612 70.3282C111.324 69.6299 111.212 68.8712 111.286 68.119C111.36 67.3668 111.619 66.6445 112.038 66.0161C112.416 65.4507 112.914 64.9767 113.497 64.627C114.08 64.2776 114.733 64.0619 115.41 63.9954C116.087 63.9289 116.769 64.0133 117.409 64.2425C118.049 64.4718 118.63 64.8401 119.11 65.321C119.753 65.9636 120.191 66.7826 120.368 67.6742C120.546 68.5658 120.454 69.4898 120.106 70.3295C119.758 71.1693 119.169 71.8864 118.413 72.3916Z" fill="#FFAD03"/>
<path d="M204.032 121.5V64.476H184.7V51.084H239.348V64.476H220.016V121.5H204.032ZM244.497 121.5V67.932H257.457L258.537 77.328H258.969C260.913 73.728 263.253 71.064 265.989 69.336C268.725 67.536 271.461 66.636 274.197 66.636C275.709 66.636 276.969 66.744 277.977 66.96C278.985 67.104 279.849 67.356 280.569 67.716L277.977 81.432C277.041 81.144 276.105 80.928 275.169 80.784C274.305 80.64 273.297 80.568 272.145 80.568C270.129 80.568 268.005 81.324 265.773 82.836C263.613 84.276 261.813 86.796 260.373 90.396V121.5H244.497ZM297.969 122.796C293.073 122.796 289.185 121.248 286.305 118.152C283.425 114.984 281.985 111.132 281.985 106.596C281.985 100.98 284.361 96.588 289.113 93.42C293.865 90.252 301.533 88.128 312.117 87.048C311.973 84.672 311.253 82.8 309.957 81.432C308.733 79.992 306.645 79.272 303.693 79.272C301.461 79.272 299.193 79.704 296.889 80.568C294.585 81.432 292.137 82.62 289.545 84.132L283.821 73.656C287.205 71.568 290.805 69.876 294.621 68.58C298.509 67.284 302.541 66.636 306.717 66.636C313.557 66.636 318.813 68.616 322.485 72.576C326.157 76.536 327.993 82.62 327.993 90.828V121.5H315.033L313.953 115.992H313.521C311.289 118.008 308.877 119.664 306.285 120.96C303.765 122.184 300.993 122.796 297.969 122.796ZM303.369 110.484C305.169 110.484 306.717 110.088 308.013 109.296C309.381 108.432 310.749 107.316 312.117 105.948V96.552C306.501 97.272 302.613 98.424 300.453 100.008C298.293 101.52 297.213 103.32 297.213 105.408C297.213 107.136 297.753 108.432 298.833 109.296C299.985 110.088 301.497 110.484 303.369 110.484ZM341.422 121.5V67.932H354.382L355.462 74.736H355.894C358.198 72.576 360.718 70.704 363.454 69.12C366.262 67.464 369.466 66.636 373.066 66.636C378.898 66.636 383.11 68.58 385.702 72.468C388.366 76.284 389.698 81.54 389.698 88.236V121.5H373.822V90.288C373.822 86.4 373.282 83.736 372.202 82.296C371.194 80.856 369.538 80.136 367.234 80.136C365.218 80.136 363.49 80.604 362.05 81.54C360.61 82.404 359.026 83.664 357.298 85.32V121.5H341.422ZM418.995 122.796C415.467 122.796 411.831 122.112 408.087 120.744C404.415 119.376 401.211 117.576 398.475 115.344L405.603 105.408C408.051 107.208 410.391 108.612 412.623 109.62C414.927 110.556 417.195 111.024 419.427 111.024C421.803 111.024 423.531 110.628 424.611 109.836C425.691 108.972 426.231 107.856 426.231 106.488C426.231 105.264 425.691 104.256 424.611 103.464C423.603 102.672 422.271 101.952 420.615 101.304C418.959 100.584 417.195 99.864 415.323 99.144C413.163 98.28 411.003 97.2 408.843 95.904C406.755 94.608 404.991 92.952 403.551 90.936C402.111 88.848 401.391 86.328 401.391 83.376C401.391 78.408 403.263 74.376 407.007 71.28C410.823 68.184 415.791 66.636 421.911 66.636C426.015 66.636 429.615 67.356 432.711 68.796C435.879 70.164 438.579 71.712 440.811 73.44L433.683 82.944C431.811 81.504 429.939 80.388 428.067 79.596C426.195 78.804 424.323 78.408 422.451 78.408C418.347 78.408 416.295 79.812 416.295 82.62C416.295 84.348 417.303 85.68 419.319 86.616C421.407 87.48 423.819 88.416 426.555 89.424C428.859 90.216 431.091 91.26 433.251 92.556C435.483 93.78 437.319 95.436 438.759 97.524C440.271 99.54 441.027 102.204 441.027 105.516C441.027 110.34 439.155 114.444 435.411 117.828C431.667 121.14 426.195 122.796 418.995 122.796ZM453.81 121.5V80.352H446.682V68.58L453.81 68.04V65.124C453.81 61.308 454.458 57.852 455.754 54.756C457.05 51.66 459.138 49.176 462.018 47.304C464.898 45.432 468.75 44.496 473.574 44.496C475.806 44.496 477.858 44.712 479.73 45.144C481.602 45.576 483.114 46.008 484.266 46.44L481.35 58.104C480.414 57.744 479.478 57.492 478.542 57.348C477.606 57.132 476.706 57.024 475.842 57.024C473.898 57.024 472.386 57.636 471.306 58.86C470.226 60.012 469.686 61.956 469.686 64.692V67.932H479.298V80.352H469.686V121.5H453.81ZM509.868 122.796C505.332 122.796 501.048 121.716 497.016 119.556C493.056 117.324 489.852 114.12 487.404 109.944C484.956 105.696 483.732 100.62 483.732 94.716C483.732 88.74 484.956 83.664 487.404 79.488C489.852 75.312 493.056 72.144 497.016 69.984C501.048 67.752 505.332 66.636 509.868 66.636C514.404 66.636 518.652 67.752 522.612 69.984C526.572 72.144 529.776 75.312 532.224 79.488C534.672 83.664 535.896 88.74 535.896 94.716C535.896 100.62 534.672 105.696 532.224 109.944C529.776 114.12 526.572 117.324 522.612 119.556C518.652 121.716 514.404 122.796 509.868 122.796ZM509.868 109.944C513.108 109.944 515.556 108.576 517.212 105.84C518.868 103.032 519.696 99.324 519.696 94.716C519.696 90.036 518.868 86.328 517.212 83.592C515.556 80.856 513.108 79.488 509.868 79.488C506.556 79.488 504.072 80.856 502.416 83.592C500.832 86.328 500.04 90.036 500.04 94.716C500.04 99.324 500.832 103.032 502.416 105.84C504.072 108.576 506.556 109.944 509.868 109.944ZM546.77 121.5V67.932H559.73L560.81 77.328H561.242C563.186 73.728 565.526 71.064 568.262 69.336C570.998 67.536 573.734 66.636 576.47 66.636C577.982 66.636 579.242 66.744 580.25 66.96C581.258 67.104 582.122 67.356 582.842 67.716L580.25 81.432C579.314 81.144 578.378 80.928 577.442 80.784C576.578 80.64 575.57 80.568 574.418 80.568C572.402 80.568 570.278 81.324 568.046 82.836C565.886 84.276 564.086 86.796 562.646 90.396V121.5H546.77ZM589.801 121.5V67.932H602.761L603.841 74.844H604.273C606.505 72.612 608.881 70.704 611.401 69.12C613.921 67.464 616.945 66.636 620.473 66.636C624.289 66.636 627.349 67.428 629.653 69.012C632.029 70.524 633.901 72.72 635.269 75.6C637.645 73.152 640.165 71.064 642.829 69.336C645.493 67.536 648.589 66.636 652.117 66.636C657.877 66.636 662.089 68.58 664.753 72.468C667.489 76.284 668.857 81.54 668.857 88.236V121.5H652.981V90.288C652.981 86.4 652.441 83.736 651.361 82.296C650.353 80.856 648.697 80.136 646.393 80.136C643.729 80.136 640.669 81.864 637.213 85.32V121.5H621.337V90.288C621.337 86.4 620.797 83.736 619.717 82.296C618.709 80.856 617.053 80.136 614.749 80.136C612.085 80.136 609.061 81.864 605.677 85.32V121.5H589.801ZM706.379 122.796C701.267 122.796 696.659 121.68 692.555 119.448C688.451 117.216 685.211 114.012 682.835 109.836C680.459 105.66 679.271 100.62 679.271 94.716C679.271 88.884 680.459 83.88 682.835 79.704C685.283 75.528 688.451 72.324 692.339 70.092C696.227 67.788 700.295 66.636 704.543 66.636C709.655 66.636 713.867 67.788 717.179 70.092C720.563 72.324 723.083 75.384 724.739 79.272C726.467 83.088 727.331 87.444 727.331 92.34C727.331 93.708 727.259 95.076 727.115 96.444C726.971 97.74 726.827 98.712 726.683 99.36H694.607C695.327 103.248 696.947 106.128 699.467 108C701.987 109.8 705.011 110.7 708.539 110.7C712.355 110.7 716.207 109.512 720.095 107.136L725.387 116.748C722.651 118.62 719.591 120.096 716.207 121.176C712.823 122.256 709.547 122.796 706.379 122.796ZM694.499 88.884H713.831C713.831 85.932 713.111 83.52 711.671 81.648C710.303 79.704 708.035 78.732 704.867 78.732C702.419 78.732 700.223 79.596 698.279 81.324C696.335 82.98 695.075 85.5 694.499 88.884ZM738.301 121.5V67.932H751.261L752.341 77.328H752.773C754.717 73.728 757.057 71.064 759.793 69.336C762.529 67.536 765.265 66.636 768.001 66.636C769.513 66.636 770.773 66.744 771.781 66.96C772.789 67.104 773.653 67.356 774.373 67.716L771.781 81.432C770.845 81.144 769.909 80.928 768.973 80.784C768.109 80.64 767.101 80.568 765.949 80.568C763.933 80.568 761.809 81.324 759.577 82.836C757.417 84.276 755.617 86.796 754.177 90.396V121.5H738.301ZM796.257 122.796C792.729 122.796 789.093 122.112 785.349 120.744C781.677 119.376 778.473 117.576 775.737 115.344L782.865 105.408C785.313 107.208 787.653 108.612 789.885 109.62C792.189 110.556 794.457 111.024 796.689 111.024C799.065 111.024 800.793 110.628 801.873 109.836C802.953 108.972 803.493 107.856 803.493 106.488C803.493 105.264 802.953 104.256 801.873 103.464C800.865 102.672 799.533 101.952 797.877 101.304C796.221 100.584 794.457 99.864 792.585 99.144C790.425 98.28 788.265 97.2 786.105 95.904C784.017 94.608 782.253 92.952 780.813 90.936C779.373 88.848 778.653 86.328 778.653 83.376C778.653 78.408 780.525 74.376 784.269 71.28C788.085 68.184 793.053 66.636 799.173 66.636C803.277 66.636 806.877 67.356 809.973 68.796C813.141 70.164 815.841 71.712 818.073 73.44L810.945 82.944C809.073 81.504 807.201 80.388 805.329 79.596C803.457 78.804 801.585 78.408 799.713 78.408C795.609 78.408 793.557 79.812 793.557 82.62C793.557 84.348 794.565 85.68 796.581 86.616C798.669 87.48 801.081 88.416 803.817 89.424C806.121 90.216 808.353 91.26 810.513 92.556C812.745 93.78 814.581 95.436 816.021 97.524C817.533 99.54 818.289 102.204 818.289 105.516C818.289 110.34 816.417 114.444 812.673 117.828C808.929 121.14 803.457 122.796 796.257 122.796ZM837.552 122.796C834.816 122.796 832.512 121.86 830.64 119.988C828.84 118.044 827.94 115.668 827.94 112.86C827.94 109.98 828.84 107.604 830.64 105.732C832.512 103.788 834.816 102.816 837.552 102.816C840.288 102.816 842.556 103.788 844.356 105.732C846.228 107.604 847.164 109.98 847.164 112.86C847.164 115.668 846.228 118.044 844.356 119.988C842.556 121.86 840.288 122.796 837.552 122.796ZM861.521 142.668C859.289 142.668 857.453 142.524 856.013 142.236C854.501 141.948 853.205 141.588 852.125 141.156L854.933 129.492C855.653 129.708 856.373 129.888 857.093 130.032C857.741 130.176 858.425 130.248 859.145 130.248C861.233 130.248 862.673 129.528 863.465 128.088C864.329 126.72 864.761 124.56 864.761 121.608V67.932H880.637V121.176C880.637 125.064 880.061 128.628 878.909 131.868C877.757 135.108 875.777 137.7 872.969 139.644C870.233 141.66 866.417 142.668 861.521 142.668ZM872.753 60.048C870.089 60.048 867.929 59.292 866.273 57.78C864.617 56.268 863.789 54.252 863.789 51.732C863.789 49.212 864.617 47.196 866.273 45.684C867.929 44.172 870.089 43.416 872.753 43.416C875.417 43.416 877.577 44.172 879.233 45.684C880.889 47.196 881.717 49.212 881.717 51.732C881.717 54.252 880.889 56.268 879.233 57.78C877.577 59.292 875.417 60.048 872.753 60.048ZM910.479 122.796C906.951 122.796 903.315 122.112 899.571 120.744C895.899 119.376 892.695 117.576 889.959 115.344L897.087 105.408C899.535 107.208 901.875 108.612 904.107 109.62C906.411 110.556 908.679 111.024 910.911 111.024C913.287 111.024 915.015 110.628 916.095 109.836C917.175 108.972 917.715 107.856 917.715 106.488C917.715 105.264 917.175 104.256 916.095 103.464C915.087 102.672 913.755 101.952 912.099 101.304C910.443 100.584 908.679 99.864 906.807 99.144C904.647 98.28 902.487 97.2 900.327 95.904C898.239 94.608 896.475 92.952 895.035 90.936C893.595 88.848 892.875 86.328 892.875 83.376C892.875 78.408 894.747 74.376 898.491 71.28C902.307 68.184 907.275 66.636 913.395 66.636C917.499 66.636 921.099 67.356 924.195 68.796C927.363 70.164 930.063 71.712 932.295 73.44L925.167 82.944C923.295 81.504 921.423 80.388 919.551 79.596C917.679 78.804 915.807 78.408 913.935 78.408C909.831 78.408 907.779 79.812 907.779 82.62C907.779 84.348 908.787 85.68 910.803 86.616C912.891 87.48 915.303 88.416 918.039 89.424C920.343 90.216 922.575 91.26 924.735 92.556C926.967 93.78 928.803 95.436 930.243 97.524C931.755 99.54 932.511 102.204 932.511 105.516C932.511 110.34 930.639 114.444 926.895 117.828C923.151 121.14 917.679 122.796 910.479 122.796Z" fill="black"/>
</svg>
